# xmcd
#
# Track frame offsets:
#	150
#	9327
#	29399
#	51403
#	68664
#	91467
#	107085
#	123091
#	129417
#	144386
#	166442
#	192041
#	211200
#	228453
#	253958
#	271041
#	293933
#
# Disc length: 4164 seconds
#
# Revision: 0
# Processed by: cddbd v1.5.2PL0 Copyright (c) Steve Scherf et al.
# Submitted via: EasyCDDAExtractor 10.0.5.1
#
DISCID=ef104211
DTITLE=Para One - Epiphanie (Japanese Edition)
DYEAR=2006
DGENRE=Electronica
TTITLE0=Piste Bleue
TTITLE1=Turtle Trouble
TTITLE2=Midnight Swim
TTITLE3=F.U.D.G.E.
TTITLE4=Dudun-Dun
TTITLE5=Musclor
TTITLE6=Def Tea Machine
TTITLE7=Les Soleils Artificiels
TTITLE8=Sages-Femmes
TTITLE9=Liege
TTITLE10=Clubhoppn
TTITLE11=Nobody Cares
TTITLE12=Bobble
TTITLE13=Ski Lesson Blues
TTITLE14=Beat Down
TTITLE15=Dudun-Dun (MSTRKRFT Remix)
TTITLE16=Les Abeilles
EXTD=
EXTT0=
EXTT1=
EXTT2=
EXTT3=
EXTT4=
EXTT5=
EXTT6=
EXTT7=
EXTT8=
EXTT9=
EXTT10=
EXTT11=
EXTT12=
EXTT13=
EXTT14=
EXTT15=
EXTT16=
PLAYORDER=
